<svg xmlns="http://www.w3.org/2000/svg" version="1.1" xmlns:xlink="http://www.w3.org/1999/xlink" xmlns:svgjs="http://svgjs.dev/svgjs" width="100%" height="100%" viewBox="0 0 1000 600"><rect width="1000" height="600" x="0" y="0" fill="#000000"/><g><circle r="166.66666666666666" cx="300.5053507486979" cy="322.7275799673796" fill="#1db954" transform="matrix(0.9339600269972821,0,0,0.9339600269972822,0,-1.4146650931681677)"/><path d="M262.99802839898655 348.2552127446174L262.99802839898655 348.2552127446174Q258.98789752486533 340.7203878916633 258.98789752486533 330.5051071386387L258.98789752486533 330.5051071386387Q258.98789752486533 321.02853470453124 262.2171081761314 313.55702770748434Q265.4463188273974 306.0644147584684 269.2664961337971 301.50552913315164Q273.1077793921658 296.9466435078349 278.6375388080593 294.2239757038262Q284.16729822395274 291.48020194784857 290.35134215088704 291.48020194784857L290.35134215088704 291.48020194784857Q299.11031221804654 291.48020194784857 304.34458830637317 296.4612066125465L304.34458830637317 296.4612066125465L320.2584760910437 283.10113901613215Q319.77303919575536 278.8377367183822 319.77303919575536 274.7009701324466L319.77303919575536 274.7009701324466Q319.77303919575536 247.7275635159892 333.99845082290113 247.7275635159892L333.99845082290113 247.7275635159892Q337.64978051354836 247.7275635159892 339.71816380651615 250.28138370424534Q341.7865470994839 252.83520389250148 342.01871257114357 256.8453347666227L342.01871257114357 256.8453347666227Q342.1453482829579 262.670577510083 338.32517097655824 268.51692620551233Q334.4838877181895 274.34216894897264 327.07569857704976 281.264921194824L327.07569857704976 281.264921194824Q330.85366397951134 306.4443218939114 330.85366397951134 315.4987752886377Q330.85366397951134 324.55322868336407 328.53200926291487 332.9956094709877Q326.23146049828745 341.45909621058036 321.48262130524915 348.3818484564317Q316.73378211221086 355.3046007022831 308.4813548923088 359.209201816559Q300.2078217204376 363.0926969788659 289.2749386004651 363.0926969788659L289.2749386004651 363.0926969788659Q273.5932162874542 363.0926969788659 265.5518485872427 352.39197933055294L265.5518485872427 352.39197933055294Q263.37793553442964 360.0534398953214 263.37793553442964 369.84660160896476Q263.37793553442964 379.6186573706391 268.54889376684906 387.470071503129Q273.6987460472995 395.3003796836499 281.8456435073563 395.3003796836499L281.8456435073563 395.3003796836499Q282.457716114459 395.3003796836499 282.52103397036615 396.5245248978554Q282.58435182627335 397.72756416009173 281.8456435073563 397.72756416009173L281.8456435073563 397.72756416009173Q272.2424353614344 397.72756416009173 266.03728548253105 388.67311076536544Q259.85324155559675 379.6186573706391 259.85324155559675 368.55913853885215Q259.85324155559675 357.4996197070652 262.99802839898655 348.2552127446174ZM320.6383832264868 286.984634178439L306.412971599341 298.782861329143Q309.8110298663595 303.4050648103669 309.8110298663595 309.16698969792003Q309.8110298663595 314.95002053744224 308.0592358529276 319.508906162759Q306.2863358875266 324.06779178807574 301.8540859740242 327.5291679110014Q297.42183606052185 330.9905440339271 291.5754873650925 330.9905440339271L291.5754873650925 330.9905440339271Q290.35134215088704 330.9905440339271 289.6970576398462 330.3784714268244Q289.02166717683633 329.7875047716907 288.7895017051767 328.43672384567094L288.7895017051767 328.43672384567094Q294.00267184153427 328.43672384567094 298.3927098510986 323.58235489278735L298.3927098510986 323.58235489278735Q304.7033894898472 316.7651324067813 304.7033894898472 308.2594337632505L304.7033894898472 308.2594337632505Q304.7033894898472 304.7347397844176 303.3737145157965 301.4633172292135L303.3737145157965 301.4633172292135Q289.7603754957534 313.11380271613405 280.3893328214912 324.2999572597354Q271.03939609919803 335.48611180333666 266.6493580896338 348.61401392809137L266.6493580896338 348.61401392809137Q273.5932162874542 359.80016847169264 288.40959456973366 359.80016847169264L288.40959456973366 359.80016847169264Q297.52736582036715 359.80016847169264 304.40790616228037 355.979991165293Q311.26734055222454 352.1387079069242 315.1508357145314 345.57475684454687L315.1508357145314 345.57475684454687Q322.81229627929986 332.70012614342085 322.81229627929986 314.3379479303395L322.81229627929986 314.3379479303395Q322.81229627929986 309.8423801609299 320.6383832264868 286.984634178439L320.6383832264868 286.984634178439ZM301.53749669448837 298.9094970409574L301.53749669448837 298.9094970409574Q297.6540015321815 294.77273045502176 290.8367790461754 294.77273045502176Q284.0406625121384 294.77273045502176 278.57422095215213 298.04415301022595L278.57422095215213 298.04415301022595Q268.4855759109419 304.12266717731495 264.0955379013776 318.47471451627507L264.0955379013776 318.47471451627507Q262.1537903202242 324.55322868336407 262.1537903202242 330.9905440339271L262.1537903202242 330.9905440339271Q262.1537903202242 338.16656770340717 264.4754450368207 344.24508187049616L264.4754450368207 344.24508187049616Q272.8545079685371 323.22355370931336 301.53749669448837 298.9094970409574ZM325.9781890746587 268.51692620551233L325.9781890746587 268.51692620551233Q325.9781890746587 271.78834876071653 326.59026168176143 277.2547903207028L326.59026168176143 277.2547903207028Q338.6206543041251 265.47766912196784 338.6206543041251 257.33077166191106L338.6206543041251 257.33077166191106Q338.6206543041251 250.99898607119334 333.99845082290113 250.99898607119334L333.99845082290113 250.99898607119334Q325.9781890746587 250.99898607119334 325.9781890746587 268.51692620551233Z " fill="#000000" transform="matrix(0.9339600269972821,0,0,0.9339600269972822,0,-1.4146650931681677)"/><path d="M554.5154691948849 348.2552127446174L554.5154691948849 348.2552127446174Q550.5053383207636 340.7203878916633 550.5053383207636 330.5051071386387L550.5053383207636 330.5051071386387Q550.5053383207636 321.02853470453124 553.7345489720298 313.55702770748434Q556.9637596232957 306.0644147584684 560.7839369296954 301.50552913315164Q564.6252201880642 296.9466435078349 570.1549796039576 294.2239757038262Q575.684739019851 291.48020194784857 581.8687829467854 291.48020194784857L581.8687829467854 291.48020194784857Q590.6277530139449 291.48020194784857 595.8620291022715 296.4612066125465L595.8620291022715 296.4612066125465L611.775916886942 283.10113901613215Q611.2904799916536 278.8377367183822 611.2904799916536 274.7009701324466L611.2904799916536 274.7009701324466Q611.2904799916536 247.7275635159892 625.5158916187994 247.7275635159892L625.5158916187994 247.7275635159892Q629.1672213094467 247.7275635159892 631.2356046024144 250.28138370424534Q633.3039878953822 252.83520389250148 633.536153367042 256.8453347666227L633.536153367042 256.8453347666227Q633.6627890788562 262.670577510083 629.8426117724565 268.51692620551233Q626.0013285140877 274.34216894897264 618.593139372948 281.264921194824L618.593139372948 281.264921194824Q622.3711047754097 306.4443218939114 622.3711047754097 315.4987752886377Q622.3711047754097 324.55322868336407 620.0494500588131 332.9956094709877Q617.7489012941857 341.45909621058036 613.0000621011474 348.3818484564317Q608.2512229081091 355.3046007022831 599.998795688207 359.209201816559Q591.7252625163359 363.0926969788659 580.7923793963633 363.0926969788659L580.7923793963633 363.0926969788659Q565.1106570833525 363.0926969788659 557.0692893831409 352.39197933055294L557.0692893831409 352.39197933055294Q554.8953763303278 360.0534398953214 554.8953763303278 369.84660160896476Q554.8953763303278 379.6186573706391 560.0663345627473 387.470071503129Q565.2161868431978 395.3003796836499 573.3630843032546 395.3003796836499L573.3630843032546 395.3003796836499Q573.9751569103572 395.3003796836499 574.0384747662645 396.5245248978554Q574.1017926221716 397.72756416009173 573.3630843032546 397.72756416009173L573.3630843032546 397.72756416009173Q563.7598761573328 397.72756416009173 557.5547262784294 388.67311076536544Q551.370682351495 379.6186573706391 551.370682351495 368.55913853885215Q551.370682351495 357.4996197070652 554.5154691948849 348.2552127446174ZM612.155824022385 286.984634178439L597.9304123952393 298.782861329143Q601.3284706622577 303.4050648103669 601.3284706622577 309.16698969792003Q601.3284706622577 314.95002053744224 599.5766766488258 319.508906162759Q597.8037766834249 324.06779178807574 593.3715267699225 327.5291679110014Q588.9392768564202 330.9905440339271 583.0929281609907 330.9905440339271L583.0929281609907 330.9905440339271Q581.8687829467854 330.9905440339271 581.2144984357445 330.3784714268244Q580.5391079727347 329.7875047716907 580.306942501075 328.43672384567094L580.306942501075 328.43672384567094Q585.5201126374326 328.43672384567094 589.9101506469968 323.58235489278735L589.9101506469968 323.58235489278735Q596.2208302857455 316.7651324067813 596.2208302857455 308.2594337632505L596.2208302857455 308.2594337632505Q596.2208302857455 304.7347397844176 594.8911553116948 301.4633172292135L594.8911553116948 301.4633172292135Q581.2778162916517 313.11380271613405 571.9067736173895 324.2999572597354Q562.5568368950964 335.48611180333666 558.1667988855321 348.61401392809137L558.1667988855321 348.61401392809137Q565.1106570833525 359.80016847169264 579.9270353656319 359.80016847169264L579.9270353656319 359.80016847169264Q589.0448066162654 359.80016847169264 595.9253469581787 355.979991165293Q602.7847813481229 352.1387079069242 606.6682765104298 345.57475684454687L606.6682765104298 345.57475684454687Q614.3297370751981 332.70012614342085 614.3297370751981 314.3379479303395L614.3297370751981 314.3379479303395Q614.3297370751981 309.8423801609299 612.155824022385 286.984634178439L612.155824022385 286.984634178439ZM593.0549374903866 298.9094970409574L593.0549374903866 298.9094970409574Q589.1714423280797 294.77273045502176 582.3542198420738 294.77273045502176Q575.5581033080367 294.77273045502176 570.0916617480503 298.04415301022595L570.0916617480503 298.04415301022595Q560.0030167068402 304.12266717731495 555.6129786972759 318.47471451627507L555.6129786972759 318.47471451627507Q553.6712311161225 324.55322868336407 553.6712311161225 330.9905440339271L553.6712311161225 330.9905440339271Q553.6712311161225 338.16656770340717 555.992885832719 344.24508187049616L555.992885832719 344.24508187049616Q564.3719487644354 323.22355370931336 593.0549374903866 298.9094970409574ZM617.4956298705571 268.51692620551233L617.4956298705571 268.51692620551233Q617.4956298705571 271.78834876071653 618.1077024776597 277.2547903207028L618.1077024776597 277.2547903207028Q630.1380951000234 265.47766912196784 630.1380951000234 257.33077166191106L630.1380951000234 257.33077166191106Q630.1380951000234 250.99898607119334 625.5158916187994 250.99898607119334L625.5158916187994 250.99898607119334Q617.4956298705571 250.99898607119334 617.4956298705571 268.51692620551233ZM654.4521517683793 343.5063735515791L654.4521517683793 343.5063735515791Q659.0743552496033 343.5063735515791 664.5407968095897 330.9905440339271L664.5407968095897 330.9905440339271Q670.1338740813903 317.73600619735805 670.1338740813903 306.8031230773854L670.1338740813903 306.8031230773854Q670.1338740813903 299.26829822443136 666.2503789190835 299.141662512617L666.2503789190835 299.141662512617Q662.4724135166218 299.141662512617 657.6813624196454 305.220176679706Q652.8692053707 311.298690846795 648.9857102083931 319.57222401866613L648.9857102083931 319.57222401866613Q640.6066472766767 337.6811308081188 638.5382639837088 346.67226634693793L638.5382639837088 346.67226634693793Q632.0798426811767 375.8617979201466 629.6526582047351 382.9111858778123L629.6526582047351 382.9111858778123Q625.4103618589542 395.3003796836499 619.9228143469987 395.3003796836499L619.9228143469987 395.3003796836499Q615.6805180012179 395.3003796836499 615.6805180012179 389.47513694018966L615.6805180012179 389.47513694018966Q615.6805180012179 386.0559727212021 617.136828687083 380.4840014013705L617.136828687083 380.4840014013705Q620.8936881375755 366.97619214117276 628.935055837787 354.58699833533507L628.935055837787 354.58699833533507L632.2064783929912 350.0914305659255Q633.3039878953822 344.60388305397015 635.1190997647212 334.2830725411003L635.1190997647212 334.2830725411003Q638.7704294553686 313.49370985157714 640.4166937089551 306.73980522147826Q642.0629579625416 299.9859005913794 644.300188871262 297.49539825903037Q646.5585257319512 295.00489592668146 648.1414721296308 295.00489592668146L648.1414721296308 295.00489592668146Q651.1807292131753 295.00489592668146 650.3153851824438 297.4320804031232L650.3153851824438 297.4320804031232Q647.2761280988993 307.41519568448814 644.0047055436952 321.02853470453124L644.0047055436952 321.02853470453124L644.8489436224576 321.02853470453124Q656.7738064849759 295.1315316384958 666.3770146308977 295.1315316384958L666.3770146308977 295.1315316384958Q674.1440049555115 295.1315316384958 676.0857525366648 305.0935409678916L676.0857525366648 305.0935409678916Q676.6978251437677 308.2594337632505 676.6978251437677 311.5519622704237L676.6978251437677 311.5519622704237Q676.6978251437677 319.57222401866613 673.0464954531203 328.92216074095927L673.0464954531203 328.92216074095927Q667.9599610285773 342.30333428934273 659.4331564330773 345.82802826817556L659.4331564330773 345.82802826817556Q656.8793362448212 346.9255377705666 654.325516056565 346.9255377705666L654.325516056565 346.9255377705666Q648.3736376012903 346.9255377705666 647.4027638107136 340.3615867081893L647.4027638107136 340.3615867081893Q647.2761280988993 339.26407720579823 647.888200706002 338.6520045986955Q648.5002733131048 338.03993199159277 649.3445113918672 338.2932034152215Q650.2098554225986 338.52536888688115 650.3153851824438 339.4962426774579L650.3153851824438 339.4962426774579Q650.9274577895465 343.5063735515791 654.4521517683793 343.5063735515791ZM619.5640131635248 392.0289571284458L619.5640131635248 392.0289571284458Q624.312852356563 392.0289571284458 631.2356046024144 355.3046007022831L631.2356046024144 355.3046007022831Q624.0595809329344 366.4907552458844 619.6906488753392 380.1040942659274L619.6906488753392 380.1040942659274Q617.7489012941857 386.1826084330164 617.7489012941857 389.09522980474657Q617.7489012941857 392.0289571284458 619.5640131635248 392.0289571284458ZM691.6619450898304 330.7583785622674L691.6619450898304 330.7583785622674Q691.6619450898304 343.5063735515791 698.4580616238675 343.5063735515791L698.4580616238675 343.5063735515791Q703.0802651050915 343.5063735515791 707.0903959792126 337.8077665199331L707.0903959792126 337.8077665199331Q714.7518565439809 327.10704887162024 716.4614386534747 309.5891087373012L716.4614386534747 309.5891087373012Q712.198036355725 307.7739968679621 710.5095601982002 303.63723028202656L710.5095601982002 303.63723028202656Q709.4120506958091 301.08341009377045 709.4120506958091 299.33161608033856Q709.4120506958091 297.55871611493757 709.8974875910974 296.22904114088686L709.8974875910974 296.22904114088686Q710.9949970934886 292.9365126337136 713.9076184652185 292.9365126337136Q716.8202398369488 292.9365126337136 718.3398683787211 296.65116018026805Q719.8594969204933 300.3658077268224 719.8594969204933 306.0644147584684L719.8594969204933 306.0644147584684Q719.8594969204933 306.4443218939114 719.8594969204933 306.9297587891998L719.8594969204933 306.9297587891998Q721.3158076063585 307.41519568448814 724.1862170741504 307.41519568448814Q727.0355205899734 307.41519568448814 729.2305395947556 305.0935409678916Q731.4044526475686 302.7929922032642 731.4044526475686 300.8512446221108L731.4044526475686 300.8512446221108Q731.4044526475686 300.3658077268224 732.0165252546713 300.1758541591009Q732.6285978617741 299.9859005913794 733.1773526129696 300.2391720150081Q733.726107364165 300.4713374866677 733.726107364165 300.95677438195605L733.726107364165 300.95677438195605Q733.726107364165 304.502574312758 730.7501681365277 307.6473611561478Q727.7531229569213 310.8132539515066 722.7721182922235 310.8132539515066L722.7721182922235 310.8132539515066Q721.569079029987 310.8132539515066 719.6273314488337 310.581088479847L719.6273314488337 310.581088479847Q718.8886231299166 318.83351569974906 716.144849373939 326.9170953038987Q713.4221815699302 335.00067490804827 708.5467066650776 340.9103414593848Q703.6923377121941 346.7989020587523 698.0992604403934 346.7989020587523L698.0992604403934 346.7989020587523Q687.525178503895 346.7989020587523 685.0979940274531 335.48611180333666L685.0979940274531 335.48611180333666Q684.4859214203505 332.2146892481325 684.4859214203505 328.81663098111403L684.4859214203505 328.81663098111403Q684.4859214203505 321.1551704163456 688.0106153991833 312.3962003491861L688.0106153991833 312.3962003491861Q692.6328188804071 300.95677438195605 699.4289354144441 298.1707887220403L699.4289354144441 298.1707887220403Q702.953629393277 296.9466435078349 704.3044103192967 297.81198753856626Q705.6340852933474 298.65622561732863 705.9928864768215 299.7537351197197L705.9928864768215 299.7537351197197Q700.3998092050208 299.7537351197197 696.0308771474256 310.20118134440395Q691.6619450898304 320.6697335210572 691.6619450898304 330.7583785622674ZM734.9291466264015 346.7989020587523L734.9291466264015 346.7989020587523Q731.5310883593829 346.7989020587523 731.5310883593829 341.56462597042565L731.5310883593829 341.56462597042565Q731.5310883593829 338.77864031050984 738.348310845389 300.8512446221108L738.348310845389 300.8512446221108Q738.8337477406774 298.29742443385464 740.5222238982021 298.29742443385464L740.5222238982021 298.29742443385464Q742.7172429029843 298.29742443385464 743.8147524053752 301.4633172292135L743.8147524053752 301.4633172292135Q744.426825012478 303.15179338673823 744.426825012478 305.1568588237988Q744.426825012478 307.16192426085945 743.9413881171897 309.4835789774559L743.9413881171897 309.4835789774559L741.9785345840671 319.4455883068518L742.59060719117 319.4455883068518Q753.0591593678232 295.1315316384958 761.7970234830136 295.1315316384958L761.7970234830136 295.1315316384958Q766.6724983878662 295.1315316384958 768.2554447855457 299.88037083153404L768.2554447855457 299.88037083153404Q768.8464114406793 301.69548270087313 768.8464114406793 304.05934932140775Q768.8464114406793 306.4443218939114 767.5167364666286 309.23030755382723L767.5167364666286 309.23030755382723Q765.2161877020012 313.97914674686547 760.5939842207772 313.97914674686547L760.5939842207772 313.97914674686547Q759.6231104302005 313.97914674686547 759.0743556790051 313.49370985157714Q758.5256009278094 313.0082729562888 758.3989652159951 312.1429289255574L758.3989652159951 312.1429289255574Q759.3698390065717 312.1429289255574 760.9527854042512 308.5549170908173Q762.5357318019308 304.9880112080464 762.7678972735903 301.9487541245019Q763.0211686972191 298.9094970409574 760.6995139806224 298.424060145669L760.6995139806224 298.424060145669Q756.4572176348418 298.424060145669 750.6108689394123 309.4835789774559Q744.7856261959521 320.54309780924285 741.2609322171193 330.63174285045307Q737.7362382382862 340.7203878916633 737.1241656311836 343.7596449752078Q736.512093024081 346.7989020587523 734.9291466264015 346.7989020587523ZM772.3711054195121 293.6752209526307L772.3711054195121 293.6752209526307Q772.3711054195121 292.34554597858 774.0806875290059 292.34554597858L774.0806875290059 292.34554597858L780.4124731197237 292.34554597858Q781.0034397748573 289.8972555501691 781.9743135654339 286.267031811491L781.9743135654339 286.267031811491L783.6838956749277 279.93524622077325Q784.4226039938449 277.1492605608575 784.9713587450403 274.82760584426103Q785.499007544267 272.52705707963355 787.0819539419463 272.52705707963355L787.0819539419463 272.52705707963355Q789.1503372349141 272.52705707963355 790.0156812656455 275.67184392302335L790.0156812656455 275.67184392302335Q790.3744824491196 277.02262484904315 790.3744824491196 278.9643724301966Q790.3744824491196 280.90612001135 789.6357741302024 283.9453770948945L789.6357741302024 283.9453770948945L787.3352253655751 292.34554597858L794.8700502185291 292.34554597858Q795.9675597209202 292.34554597858 796.3896787603014 293.063148345528Q796.8117977996826 293.80185666444504 796.3896787603014 294.45614117548587Q795.9675597209202 295.1315316384958 794.8700502185291 295.1315316384958L794.8700502185291 295.1315316384958L786.5965170466579 295.1315316384958Q779.061692193704 323.455719180973 779.061692193704 335.253946331677L779.061692193704 335.253946331677Q779.061692193704 343.8862806870221 782.9451873560108 343.8862806870221L782.9451873560108 343.8862806870221Q786.1110801513696 343.8862806870221 791.8307931349846 335.48611180333666Q797.5505061185995 327.10704887162024 801.6872727045352 318.7068799879347L801.6872727045352 318.7068799879347L805.8029333385016 310.3278170562183L809.0954618456749 310.3278170562183Q808.3567535267578 311.78412774208334 807.2170321204287 314.2746300744323Q806.0562047621304 316.7651324067813 802.6581464951119 323.16023585340616Q799.2389822761243 329.534233348062 796.1364073366726 334.3886023009456Q793.05493834919 339.26407720579823 789.2136550908212 343.21089022401225Q785.3934777844215 347.1577032422263 782.1009492772484 347.1577032422263Q778.8295267220442 347.1577032422263 776.4445541495406 345.02600209335134Q774.0806875290059 342.9154068964454 773.4052970659961 338.94748792626234Q772.7510125549552 335.00067490804827 772.7510125549552 330.8639083221127L772.7510125549552 330.8639083221127Q772.7510125549552 321.2607001761909 779.5471290889923 295.1315316384958L779.5471290889923 295.1315316384958L774.0806875290059 295.1315316384958Q773.1098137384292 295.1315316384958 772.7510125549552 294.58277688730027Q772.3711054195121 294.03402213610474 772.3711054195121 293.6752209526307ZM849.0912408270417 278.60557124672255Q845.5665468482089 291.3535662360342 843.5614814111482 299.8170529756269Q841.5564159740877 308.2594337632505 839.1714434015839 319.3822704509446Q836.8075767810494 330.5051071386387 836.8075767810494 337.19569391283045Q836.8075767810494 343.8862806870221 839.8468338645939 343.8862806870221L839.8468338645939 343.8862806870221Q843.139362371767 343.8862806870221 848.9012872593203 335.48611180333666Q854.6843180988424 327.10704887162024 858.821084684778 318.7068799879347L858.821084684778 318.7068799879347L862.8312155588992 310.3278170562183L866.1026381141032 310.3278170562183Q865.3850357471554 311.78412774208334 864.224208388857 314.2746300744323Q863.063381030559 316.7651324067813 859.6653227635404 323.16023585340616Q856.2672644965219 329.534233348062 853.1646895570702 334.3886023009456Q850.0621146176184 339.26407720579823 846.1786194553117 343.21089022401225Q842.2740183410358 347.1577032422263 839.4880326811199 347.1577032422263L839.4880326811199 347.1577032422263Q830.7290626139604 347.1577032422263 830.7290626139604 334.2830725411003L830.7290626139604 334.2830725411003Q830.7290626139604 329.534233348062 832.0798435399802 321.8727727832936L832.0798435399802 321.8727727832936L831.0878637974345 321.8727727832936Q817.6011604892058 346.9255377705666 809.2220975574892 346.9255377705666L809.2220975574892 346.9255377705666Q799.6188894115674 346.9255377705666 799.6188894115674 332.44685471979216L799.6188894115674 332.44685471979216Q799.6188894115674 324.06779178807574 803.9878214691626 314.10578245867987L803.9878214691626 314.10578245867987Q810.0663356362516 300.59797319848207 819.4162723585448 296.4612066125465L819.4162723585448 296.4612066125465Q822.7088008657179 295.1315316384958 826.0435412768293 295.1315316384958Q829.3993876399097 295.1315316384958 831.341135221063 297.07327921964924Q833.2828828022166 299.0150268008026 833.2828828022166 301.4633172292135L833.2828828022166 301.4633172292135Q833.2828828022166 302.5397207796355 832.1220554439183 302.4764029237283Q830.9823340375892 302.4341910197902 830.9823340375892 301.33668151739914Q830.9823340375892 300.2391720150081 829.8215066792909 299.33161608033856Q828.6606793209926 298.424060145669 826.4867662681795 298.424060145669L826.4867662681795 298.424060145669Q818.825305703411 298.424060145669 812.6201558245077 312.1429289255574L812.6201558245077 312.1429289255574Q806.7738071290785 324.9120298668381 806.7738071290785 336.3514558340681L806.7738071290785 336.3514558340681Q806.7738071290785 343.4008437917338 809.813064212623 343.4008437917338L809.813064212623 343.4008437917338Q813.9498307985584 343.4008437917338 820.1549806774619 334.3886023009456Q826.3601305563652 325.39746676212644 831.0456518934964 315.0766562492566Q835.7100672786582 304.7347397844176 837.7151327157189 296.16572328497966Q839.7201981527796 287.5967067855417 843.8569647387151 272.7592225512932L843.8569647387151 272.7592225512932Q846.5374206387855 263.15601440537137 850.906352696381 263.15601440537137L850.906352696381 263.15601440537137Q851.8772264869576 263.15601440537137 852.362663382246 263.83140486838124Q852.8481002775343 264.48568937942207 852.742570517689 265.16107984243195Q852.6159348058748 265.8364703054418 849.0912408270417 278.60557124672255ZM889.4458209918826 270.56420354651107L889.4458209918826 270.56420354651107Q893.835859001447 259.14588353125015 893.835859001447 255.00911694531456Q893.835859001447 250.872350359379 891.7674757084792 250.64018488771933L891.7674757084792 250.64018488771933Q886.0477627248642 250.64018488771933 879.9059307018679 268.9390452448935Q873.7640986788717 287.2379056020677 870.302722555946 306.8664409332926Q866.8413464330204 326.4949762645175 866.8413464330204 334.6418737245743L866.8413464330204 334.6418737245743Q866.8413464330204 348.3818484564317 873.6374629670574 348.3818484564317L873.6374629670574 348.3818484564317Q873.6374629670574 349.2260865351941 872.5610594166353 350.0914305659255Q871.4635499142444 350.9356686446879 870.0072392283791 350.9356686446879L870.0072392283791 350.9356686446879Q860.0241239470145 350.9356686446879 860.0241239470145 333.05892732689483L860.0241239470145 333.05892732689483Q860.0241239470145 326.4949762645175 862.4724143754252 312.9449551003816Q864.899598851867 299.3949339362457 868.7830940141739 284.5574497019972Q872.6665891764808 269.7199654677487 878.8717390553841 258.72376449186896Q885.0768889342874 247.7275635159892 891.5142042848504 247.7275635159892L891.5142042848504 247.7275635159892Q896.6218446613627 247.7275635159892 896.6218446613627 254.16487886655221L896.6218446613627 254.16487886655221Q896.6218446613627 259.0192478194358 893.5825875778182 267.77821788659526L893.5825875778182 267.77821788659526Q887.757344834358 284.78961517365684 876.8033557624162 301.8221184126875L876.8033557624162 301.8221184126875Q873.890734390686 306.3176861820971 871.5901856260587 309.1036718420129L871.5901856260587 309.1036718420129Q870.978113018956 309.8423801609299 870.978113018956 308.6182349467245L870.978113018956 308.6182349467245Q870.8514773071415 306.3176861820971 872.075622521347 304.6081040726033L872.075622521347 304.6081040726033Q882.0376318507429 289.6650900785095 889.4458209918826 270.56420354651107ZM894.5534613683949 329.0487964527737L894.5534613683949 329.0487964527737Q894.5534613683949 343.7596449752078 905.0220135450481 343.7596449752078L905.0220135450481 343.7596449752078Q908.905508707355 343.7596449752078 913.2111229090431 340.2982688522821Q917.5378430627002 336.83689272935646 921.062537041533 331.96141782450377L921.062537041533 331.96141782450377Q928.8295273661467 320.7752632809025 931.9954201615055 313.7258753232368L931.9954201615055 313.7258753232368L933.578366559185 310.3278170562183L936.8708950663583 310.3278170562183Q934.8025117733905 315.1821860091019 930.7923808992693 322.29489182267474Q926.7822500251482 329.40759763624766 923.1309203345008 334.2830725411003Q919.4795906438535 339.1374414939839 914.4985859791557 343.0842545121979Q909.5175813144579 347.052173482381 905.0220135450481 347.052173482381L905.0220135450481 347.052173482381Q887.0186365154409 347.052173482381 887.0186365154409 326.8537774479915L887.0186365154409 326.8537774479915Q887.0186365154409 317.50384072569835 892.485078075427 308.13279805143617L892.485078075427 308.13279805143617Q900.0199029283813 295.1315316384958 911.1005277121371 295.1315316384958L911.1005277121371 295.1315316384958Q918.8675180367509 295.1315316384958 918.8675180367509 303.63723028202656L918.8675180367509 303.63723028202656Q918.8675180367509 309.9690158727443 914.0131490838673 316.7651324067813L914.0131490838673 316.7651324067813Q907.1959265978612 326.0095393692292 898.0781553472277 326.1361750810435L898.0781553472277 326.1361750810435Q896.748480373177 326.1361750810435 896.389679189703 324.9120298668381L896.389679189703 324.9120298668381L896.2630434778887 324.4265929715497Q902.5737231166374 324.4265929715497 908.3567539561595 316.11084789574045Q914.1397847956816 307.7739968679621 914.1397847956816 302.1809195961615L914.1397847956816 302.1809195961615Q914.1397847956816 298.424060145669 911.2060574719824 298.424060145669L911.2060574719824 298.424060145669Q904.7687421214196 298.424060145669 899.1756648496189 309.71574444911556L899.1756648496189 309.71574444911556Q894.5534613683949 319.31895259503744 894.5534613683949 329.0487964527737Z " fill="#1db954" transform="matrix(0.9339600269972821,0,0,0.9339600269972822,0,-1.4146650931681677)"/></g></svg>